<svg width="150" height="75" viewBox="0 0 262 75" fill="none" xmlns="http://www.w3.org/2000/svg">
<path fill-rule="evenodd" clip-rule="evenodd" d="M66.496 11.4539C73.4017 24.7083 70.1716 39.7449 56.9171 56.3408C56.583 56.6749 55.692 58.0115 54.8009 59.1253C53.6871 58.2343 52.5733 57.3432 51.4594 56.3408C52.3505 55.1156 53.3529 53.779 53.5757 53.4448C64.7139 39.7449 69.0578 25.5994 66.496 11.4539ZM45.4448 50.2148C46.3359 48.8782 47.4497 47.3188 47.6724 46.9847C65.2708 21.701 63.0432 5.21648 54.6895 0.983969C48.5635 -2.13472 39.9871 2.09777 30.2969 14.5725C54.9123 -9.26319 66.0505 10.0059 43.7741 42.6408C43.5513 42.9749 42.6603 44.3115 41.7692 45.5367C42.9944 47.2075 44.2196 48.7668 45.4448 50.2148ZM47.0042 51.8855C47.8952 52.8879 48.7863 53.8904 49.7887 54.7814C50.6798 53.5562 51.6822 51.9969 51.905 51.6627C66.9415 31.1685 68.5009 15.9091 61.0383 6.10751C65.1594 18.1368 61.261 32.3937 49.1204 48.8782C48.8976 49.2123 47.8952 50.6603 47.0042 51.8855Z" fill="#E93525"/>
<path fill-rule="evenodd" clip-rule="evenodd" d="M57.9231 74.8299C43.5548 76.2779 31.3028 68.4812 20.9443 51.4397C20.276 50.3259 16.8232 44.5341 14.9297 41.304C16.2663 40.8584 17.8256 40.5243 19.385 40.1902C21.1671 43.3088 24.1744 48.4324 24.8427 49.3235C33.1963 63.5804 44.3345 72.1568 57.9231 74.8299ZM28.2955 39.2991C30.189 42.0837 32.4166 45.4251 32.9736 46.2048C49.5695 70.2633 65.0515 73.9389 71.8458 67.8129C76.9694 63.2462 76.1897 53.6674 68.1703 40.0788C81.0906 71.2657 59.928 74.8299 38.2085 43.7544C37.8744 43.3089 36.5378 41.4154 35.2012 39.2991C32.7508 39.1877 30.5232 39.1877 28.2955 39.2991ZM25.8451 39.4105C24.2858 39.5219 22.8378 39.6333 21.5012 39.856C23.3947 42.8633 26.402 47.5414 26.9589 48.4324C40.102 68.4812 53.1337 74.9413 64.7174 71.8226C52.4654 71.2657 40.9931 62.9121 30.5232 46.7617C30.0776 45.982 27.7386 42.3064 25.8451 39.4105Z" fill="#060F19"/>
<path fill-rule="evenodd" clip-rule="evenodd" d="M3.67834 31.9478C12.3661 19.3617 27.5141 15.2405 49.1222 19.5844L52.4636 20.2527C52.0181 21.5893 51.5726 23.0373 51.0157 24.4852C49.3449 24.1511 47.6742 23.817 47.3401 23.7056C29.8531 20.1413 15.0393 22.8145 3.67834 31.9478ZM47.2287 32.5047C45.558 32.1706 43.7758 31.9478 43.4417 31.8364C13.1458 28.2722 -0.220027 37.8511 0.00273706 47.2072C0.114119 54.1128 7.91086 59.6819 23.5043 62.3551C-9.13057 51.7738 2.78729 32.8389 42.4393 37.4055C42.662 37.4055 43.3303 37.5169 44.2214 37.7397C45.3352 35.8462 46.3376 34.1755 47.2287 32.5047ZM48.3425 30.2771C49.0108 29.0519 49.5677 27.8267 50.0132 26.6015C48.2311 26.2674 46.3376 25.9332 45.8921 25.8218C20.8312 22.2576 6.68566 27.9381 1.45071 39.0763C10.1385 29.8316 24.5068 26.6015 44.6669 29.4974C45.001 29.7202 46.6718 30.0543 48.3425 30.2771Z" fill="#D2D2D2"/>
<path fill-rule="evenodd" clip-rule="evenodd" d="M101.472 52.331C98.4651 52.331 96.0147 51.6627 94.0098 50.4375C92.005 49.2123 90.557 47.4302 89.7773 45.2026L96.0147 41.527C97.1286 44.0888 98.9107 45.3139 101.584 45.3139C103.811 45.3139 104.925 44.6456 104.925 43.4204C104.925 42.6408 104.257 41.9725 103.032 41.4156C102.586 41.3042 101.361 40.8587 99.4676 40.3018C96.683 39.5221 94.5668 38.4083 93.1188 36.9603C91.6708 35.5123 91.0026 33.7302 91.0026 31.3912C91.0026 28.718 91.8936 26.6018 93.7871 25.0424C95.6806 23.3717 98.131 22.592 100.916 22.592C103.255 22.592 105.371 23.149 107.264 24.2628C109.158 25.3766 110.494 27.0473 111.497 29.0522L105.371 32.6164C104.48 30.5002 103.032 29.3863 100.916 29.3863C100.024 29.3863 99.4676 29.6091 98.9107 29.9433C98.4651 30.2774 98.2424 30.7229 98.2424 31.2798C98.2424 31.9481 98.5765 32.3936 99.2448 32.8392C99.9131 33.2847 101.25 33.7302 103.143 34.3985C104.591 34.8441 105.705 35.1782 106.485 35.5124C107.376 35.8465 108.267 36.4034 109.269 37.0717C111.274 38.4083 112.277 40.4132 112.277 43.3091C112.277 46.0936 111.274 48.3213 109.269 49.8806C107.376 51.5513 104.703 52.331 101.472 52.331ZM139.12 23.2603H146.359V51.7741H139.12V36.4034L132.214 47.8757H131.434L124.529 36.5148V51.7741H117.289V23.2603H124.529L131.768 35.401L139.12 23.2603ZM171.754 28.9408L161.73 44.757H172.089V51.7741H152.263V46.205L162.287 30.3888H152.485V23.3717H171.754V28.9408Z" fill="#060F19"/>
<path fill-rule="evenodd" clip-rule="evenodd" d="M188.46 29.7204C187.792 29.7204 187.235 29.609 186.79 29.2749C186.344 29.0521 186.01 28.6066 185.898 28.1611L187.235 27.3814C187.458 27.9383 187.903 28.2724 188.46 28.2724C188.906 28.2724 189.24 28.161 189.24 27.8269C189.24 27.6041 189.129 27.4927 188.794 27.3814C188.683 27.3814 188.46 27.27 188.015 27.1586C187.458 26.9359 186.901 26.7131 186.567 26.3789C186.233 26.0448 186.121 25.5993 186.121 25.1537C186.121 24.5968 186.344 24.1513 186.79 23.7058C187.235 23.3716 187.681 23.1489 188.349 23.1489C188.906 23.1489 189.351 23.2602 189.797 23.483C190.242 23.7058 190.465 24.0399 190.688 24.5968L189.351 25.3765C189.129 24.931 188.794 24.7082 188.349 24.7082C188.126 24.7082 188.015 24.7082 187.903 24.8196C187.792 24.931 187.792 25.0423 187.792 25.1537C187.792 25.2651 187.903 25.3765 188.015 25.4879C188.126 25.5993 188.46 25.7106 188.906 25.822C189.24 25.9334 189.463 26.0448 189.685 26.0448C189.908 26.1562 190.131 26.2676 190.242 26.3789C190.688 26.7131 190.911 27.1586 190.911 27.7155C190.911 28.3838 190.688 28.8293 190.242 29.1635C189.797 29.4976 189.24 29.7204 188.46 29.7204ZM198.15 29.609H196.368L196.146 28.718H194.029L193.807 29.609H192.024L194.141 23.3716H196.146L198.15 29.609ZM195.143 25.1537L194.475 27.27H195.7L195.143 25.1537ZM204.611 23.2603H206.17V29.4976H204.611V26.1562L203.051 28.718H202.94L201.381 26.1562V29.4976H199.821V23.2603H201.381L202.94 25.9334L204.611 23.2603ZM213.967 29.609H212.185L211.962 28.718H209.846L209.623 29.609H207.841L209.957 23.3716H211.962L213.967 29.609ZM210.959 25.1537L210.291 27.27H211.516L210.959 25.1537ZM220.65 29.609H218.979L217.865 27.6041H217.308V29.609H215.637V23.3716H218.199C218.867 23.3716 219.424 23.5944 219.759 24.0399C220.204 24.4854 220.427 24.931 220.427 25.5992C220.427 25.9334 220.315 26.2676 220.093 26.6017C219.87 26.9359 219.647 27.1586 219.313 27.3814L220.65 29.609ZM218.088 24.7082H217.197V26.1562H218.088C218.311 26.1562 218.422 26.0448 218.533 25.9334C218.645 25.822 218.756 25.5993 218.756 25.3765C218.756 25.1537 218.645 25.0424 218.533 24.8196C218.422 24.8196 218.311 24.7082 218.088 24.7082ZM228.558 26.3789C228.558 27.1586 228.335 27.8269 227.889 28.3838L228.446 28.9407L227.333 29.9432L226.664 29.2749C226.219 29.4976 225.773 29.609 225.216 29.609C224.325 29.609 223.546 29.2749 222.877 28.718C222.209 28.0497 221.875 27.27 221.875 26.3789C221.875 25.4879 222.209 24.7082 222.877 24.0399C223.546 23.3716 224.325 23.0375 225.216 23.0375C226.107 23.0375 226.887 23.3716 227.555 24.0399C228.224 24.7082 228.558 25.4879 228.558 26.3789ZM225.328 28.1611C225.328 28.1611 225.439 28.1611 225.55 28.1611L224.659 27.27L225.773 26.2675L226.776 27.27C226.887 27.0472 226.998 26.7131 226.998 26.4903C226.998 25.9334 226.887 25.5993 226.553 25.2651C226.219 24.931 225.773 24.8196 225.328 24.8196C224.882 24.8196 224.437 24.931 224.102 25.2651C223.768 25.5993 223.657 25.9334 223.657 26.4903C223.657 26.9358 223.768 27.3814 224.102 27.7155C224.437 27.9383 224.771 28.1611 225.328 28.1611ZM235.909 29.609H234.127L233.904 28.718H231.788L231.565 29.609H229.783L231.899 23.3716H233.904L235.909 29.609ZM232.902 25.1537L232.233 27.27H233.459L232.902 25.1537ZM241.032 26.3789V23.2603H242.592V29.4976H241.367L239.139 26.3789V29.4976H237.58V23.2603H238.805L241.032 26.3789ZM244.82 23.2603H247.381C248.272 23.2603 248.941 23.5944 249.609 24.1513C250.166 24.7082 250.5 25.4879 250.5 26.3789C250.5 27.27 250.166 28.0497 249.609 28.6066C249.052 29.1635 248.272 29.4976 247.381 29.4976H244.82V23.2603ZM246.379 28.0497H247.27C247.715 28.0497 248.05 27.9383 248.384 27.6041C248.606 27.27 248.829 26.9358 248.829 26.4903C248.829 26.0448 248.718 25.5993 248.384 25.3765C248.161 25.0424 247.715 24.931 247.27 24.931H246.379V28.0497ZM191.133 34.3984H192.693V40.6358H191.133V37.2943L189.574 39.8562H189.463L187.903 37.2943V40.6358H186.344V34.3984H187.903L189.463 37.0716L191.133 34.3984ZM196.48 38.1854V39.0765H198.93V40.6358H194.92V34.3984H198.93V35.8464H196.591V36.7374H198.707V38.1854H196.48ZM200.378 34.3984H205.056V35.9578H203.497V40.7472H201.937V35.9578H200.378V34.3984V34.3984ZM212.073 40.6358H210.291L210.068 39.7448H207.952L207.729 40.6358H205.947L208.063 34.3984H210.068L212.073 40.6358ZM208.955 36.1805L208.286 38.2968H209.511L208.955 36.1805ZM215.303 34.3984V39.1879H217.42V40.7472H213.633V34.5098H215.303V34.3984ZM220.761 34.3984V39.1879H222.877V40.7472H219.09V34.5098H220.761V34.3984ZM224.548 38.6309V34.3984H226.107V38.5196C226.107 39.0765 226.441 39.2992 226.998 39.2992C227.555 39.2992 227.889 39.0765 227.889 38.5196V34.3984H229.449V38.6309C229.449 39.2992 229.226 39.8561 228.78 40.1903C228.335 40.6358 227.778 40.7472 226.998 40.7472C226.219 40.7472 225.662 40.5244 225.216 40.1903C224.771 39.7448 224.548 39.2992 224.548 38.6309ZM236.689 40.6358H235.018L233.904 38.6309H233.347V40.6358H231.788V34.3984H234.35C235.018 34.3984 235.575 34.6212 235.909 35.0667C236.354 35.5122 236.577 35.9578 236.577 36.6261C236.577 36.9602 236.466 37.2944 236.243 37.6285C236.02 37.9627 235.798 38.1854 235.463 38.4082L236.689 40.6358ZM234.127 35.8464H233.236V37.2943H234.127C234.35 37.2943 234.461 37.183 234.572 37.0716C234.684 36.9602 234.795 36.7375 234.795 36.5147C234.795 36.2919 234.684 36.1805 234.572 35.9578C234.461 35.9578 234.35 35.8464 234.127 35.8464ZM241.367 37.0716H244.485V37.7399C244.485 38.631 244.151 39.4106 243.594 39.9675C243.037 40.5245 242.258 40.8586 241.367 40.8586C240.364 40.8586 239.585 40.5245 238.916 39.9675C238.248 39.2993 238.025 38.5196 238.025 37.6285C238.025 36.7375 238.359 35.9578 238.916 35.2895C239.585 34.6212 240.364 34.2871 241.255 34.2871C241.812 34.2871 242.369 34.3984 242.815 34.7326C243.26 34.9553 243.706 35.2895 243.928 35.735L242.592 36.5147C242.48 36.2919 242.258 36.1806 242.035 36.0692C241.812 35.9578 241.478 35.8464 241.255 35.8464C240.81 35.8464 240.364 35.9578 240.03 36.2919C239.696 36.6261 239.585 37.0716 239.585 37.5171C239.585 37.9627 239.696 38.4082 240.03 38.7423C240.364 39.0765 240.81 39.2992 241.367 39.2992C242.146 39.2992 242.592 39.0765 242.815 38.5196H241.255V37.0716H241.367ZM246.49 40.6358V34.3984H248.05V40.6358H246.49ZM253.841 34.3984H255.624L253.507 38.2968V40.7472H251.948V38.2968L249.832 34.3984H251.614L252.728 36.7374L253.841 34.3984ZM261.972 40.6358H260.19L259.967 39.7448H257.963L257.74 40.6358H255.958L258.074 34.3984H260.079L261.972 40.6358ZM258.965 36.1805L258.297 38.2968H259.522L258.965 36.1805ZM190.354 46.7618L188.126 50.2147H190.465V51.774H186.121V50.5488L188.349 47.096H186.121V45.5366H190.354V46.7618V46.7618ZM197.928 51.774H196.146L195.923 50.883H193.807L193.584 51.774H191.802L193.918 45.5366H195.923L197.928 51.774ZM194.92 47.3187L194.252 49.435H195.477L194.92 47.3187ZM202.717 51.774H200.824L198.819 45.5366H200.601L201.826 49.8805L203.051 45.5366H204.833L202.717 51.774ZM211.405 50.9943C210.737 51.6626 209.957 51.8854 209.066 51.8854C208.175 51.8854 207.395 51.5513 206.727 50.9943C206.059 50.3261 205.724 49.5464 205.724 48.6553C205.724 47.7643 206.059 46.9846 206.727 46.3163C207.395 45.648 208.175 45.3139 209.066 45.3139C209.957 45.3139 210.737 45.648 211.405 46.3163C212.073 46.9846 212.407 47.7643 212.407 48.6553C212.407 49.5464 212.073 50.3261 211.405 50.9943ZM207.952 49.8805C208.286 50.2147 208.732 50.326 209.177 50.326C209.623 50.326 210.068 50.2147 210.402 49.8805C210.737 49.5464 210.848 49.1008 210.848 48.6553C210.848 48.0984 210.737 47.7643 210.402 47.4301C210.068 47.096 209.623 46.9846 209.177 46.9846C208.732 46.9846 208.286 47.096 207.952 47.4301C207.618 47.7643 207.507 48.0984 207.507 48.6553C207.395 49.1008 207.618 49.5464 207.952 49.8805ZM214.301 45.4252H216.863C217.754 45.4252 218.422 45.7594 219.09 46.3163C219.647 46.8732 219.981 47.6529 219.981 48.5439C219.981 49.435 219.647 50.2147 219.09 50.7716C218.533 51.3285 217.754 51.6626 216.863 51.6626H214.301V45.4252ZM215.972 50.2147H216.863C217.308 50.2147 217.642 50.1033 217.976 49.7691C218.199 49.435 218.422 49.1008 218.422 48.6553C218.422 48.2098 218.311 47.7643 217.976 47.5415C217.754 47.2074 217.308 47.096 216.863 47.096H215.972V50.2147ZM221.875 51.774V45.5366H223.434V51.774H221.875Z" fill="#060F19"/>
<path d="M179.44 23.2601H178.438V51.7739H179.44V23.2601Z" fill="#060F19"/>
</svg>
